<svg width="1280" height="720" xmlns="http://www.w3.org/2000/svg" xmlns:xlink="http://www.w3.org/1999/xlink" overflow="hidden"><defs><filter id="fx0" x="-10%" y="-10%" width="120%" height="120%" filterUnits="userSpaceOnUse" primitiveUnits="userSpaceOnUse"><feComponentTransfer color-interpolation-filters="sRGB"><feFuncR type="discrete" tableValues="0 0"/><feFuncG type="discrete" tableValues="0 0"/><feFuncB type="discrete" tableValues="0 0"/><feFuncA type="linear" slope="0.4" intercept="0"/></feComponentTransfer><feGaussianBlur stdDeviation="1.77778 1.77778"/></filter><filter id="fx1" x="-10%" y="-10%" width="120%" height="120%" filterUnits="userSpaceOnUse" primitiveUnits="userSpaceOnUse"><feComponentTransfer color-interpolation-filters="sRGB"><feFuncR type="discrete" tableValues="0 0"/><feFuncG type="discrete" tableValues="0 0"/><feFuncB type="discrete" tableValues="0 0"/><feFuncA type="linear" slope="0.4" intercept="0"/></feComponentTransfer><feGaussianBlur stdDeviation="1.77778 1.77778"/></filter><filter id="fx2" x="-10%" y="-10%" width="120%" height="120%" filterUnits="userSpaceOnUse" primitiveUnits="userSpaceOnUse"><feComponentTransfer color-interpolation-filters="sRGB"><feFuncR type="discrete" tableValues="0 0"/><feFuncG type="discrete" tableValues="0 0"/><feFuncB type="discrete" tableValues="0 0"/><feFuncA type="linear" slope="0.4" intercept="0"/></feComponentTransfer><feGaussianBlur stdDeviation="1.77778 1.77778"/></filter></defs><g><rect x="0" y="0" width="1280" height="720" fill="#FFFFFF"/><g filter="url(#fx0)" transform="translate(19 96)"><g><rect x="9.82843" y="9.82843" width="354" height="514" stroke="#002060" stroke-width="6" stroke-miterlimit="8" fill="none"/></g></g><rect x="26" y="103" width="354" height="514" stroke="#002060" stroke-width="6" stroke-miterlimit="8" fill="none"/><text font-family="Aptos,Aptos_MSFontService,sans-serif" font-weight="400" font-size="42.6667" transform="translate(75.9087 164)">Ontology</text><text font-family="Aptos,Aptos_MSFontService,sans-serif" font-weight="400" font-size="42.6667" transform="translate(251.622 164)">A</text><rect x="73.5001" y="211.5" width="127" height="49" stroke="#00B050" stroke-linejoin="round" stroke-miterlimit="10" fill="none"/><text fill="#00B050" font-family="Consolas,Consolas_MSFontService,sans-serif" font-weight="400" font-size="32" transform="translate(82.9093 246)">Person</text><rect x="137.5" y="289.5" width="127" height="49" stroke="#00B050" stroke-linejoin="round" stroke-miterlimit="10" fill="none"/><text fill="#00B050" font-family="Consolas,Consolas_MSFontService,sans-serif" font-weight="400" font-size="32" transform="translate(146.949 324)">Client</text><rect x="137.5" y="405.5" width="162" height="48" stroke="#002060" stroke-linejoin="round" stroke-miterlimit="10" fill="none"/><text font-family="Consolas,Consolas_MSFontService,sans-serif" font-weight="400" font-size="32" transform="translate(146.949 440)">Employee</text><g filter="url(#fx1)" transform="translate(417 94)"><g><rect x="9.82843" y="9.82843" width="354" height="515" stroke="#002060" stroke-width="6" stroke-miterlimit="8" fill="none"/></g></g><rect x="424" y="101" width="354" height="515" stroke="#002060" stroke-width="6" stroke-miterlimit="8" fill="none"/><text font-family="Aptos,Aptos_MSFontService,sans-serif" font-weight="400" font-size="42.6667" transform="translate(474.007 162)">Ontology</text><text font-family="Aptos,Aptos_MSFontService,sans-serif" font-weight="400" font-size="42.6667" transform="translate(649.721 162)">B</text><rect x="535.5" y="290.5" width="127" height="48" stroke="#002060" stroke-linejoin="round" stroke-miterlimit="10" fill="none"/><text font-family="Consolas,Consolas_MSFontService,sans-serif" font-weight="400" font-size="32" transform="translate(545.047 325)">Person</text><rect x="473.5" y="208.5" width="126" height="48" stroke="#00B050" stroke-linejoin="round" stroke-miterlimit="10" fill="none"/><text fill="#00B050" font-family="Consolas,Consolas_MSFontService,sans-serif" font-weight="400" font-size="32" transform="translate(482.26 243)">Client</text><rect x="537.5" y="401.5" width="215" height="48" stroke="#00B050" stroke-linejoin="round" stroke-miterlimit="10" fill="none"/><text fill="#00B050" font-family="Consolas,Consolas_MSFontService,sans-serif" font-weight="400" font-size="32" transform="translate(546.327 436)">Corporation</text><rect x="73.5001" y="519.5" width="216" height="49" stroke="#00B050" stroke-linejoin="round" stroke-miterlimit="10" fill="none"/><text fill="#00B050" font-family="Consolas,Consolas_MSFontService,sans-serif" font-weight="400" font-size="32" transform="translate(82.9093 554)">Corporation</text><rect x="469.5" y="516.5" width="144" height="49" stroke="#002060" stroke-linejoin="round" stroke-miterlimit="10" fill="none"/><text font-family="Consolas,Consolas_MSFontService,sans-serif" font-weight="400" font-size="32" transform="translate(478.385 551)">Product</text><path d="M93.5001 260.5 94.0178 429.981" stroke="#156082" stroke-width="3" stroke-miterlimit="8" fill="none" fill-rule="evenodd"/><path d="M0 0 44.7465 0.000104987" stroke="#156082" stroke-width="3" stroke-miterlimit="8" fill="none" fill-rule="evenodd" transform="matrix(-1 0 0 1 138.247 314.5)"/><path d="M0 0 44.7465 0.000104987" stroke="#156082" stroke-width="3" stroke-miterlimit="8" fill="none" fill-rule="evenodd" transform="matrix(-1 0 0 1 138.247 429.5)"/><path d="M492.5 256.5 493.018 425.981" stroke="#156082" stroke-width="3" stroke-miterlimit="8" fill="none" fill-rule="evenodd"/><path d="M0 0 44.7465 0.000104987" stroke="#156082" stroke-width="3" stroke-miterlimit="8" fill="none" fill-rule="evenodd" transform="matrix(-1 0 0 1 537.247 310.5)"/><path d="M0 0 44.7465 0.000104987" stroke="#156082" stroke-width="3" stroke-miterlimit="8" fill="none" fill-rule="evenodd" transform="matrix(-1 0 0 1 537.247 426.5)"/><path d="M560.5 338.5 560.5 368.404" stroke="#156082" stroke-width="3" stroke-miterlimit="8" fill="none" fill-rule="evenodd"/><path d="M0 0 44.7465 0.000104987" stroke="#156082" stroke-width="3" stroke-miterlimit="8" fill="none" fill-rule="evenodd" transform="matrix(-1 0 0 1 605.247 353.5)"/><path d="M565.5 449.5 565.5 479.404" stroke="#156082" stroke-width="3" stroke-miterlimit="8" fill="none" fill-rule="evenodd"/><path d="M0 0 44.7465 0.000104987" stroke="#156082" stroke-width="3" stroke-miterlimit="8" fill="none" fill-rule="evenodd" transform="matrix(-1 0 0 1 610.247 464.5)"/><text font-family="Aptos,Aptos_MSFontService,sans-serif" font-weight="400" font-size="24" transform="translate(613.919 356)">…</text><text font-family="Aptos,Aptos_MSFontService,sans-serif" font-weight="400" font-size="24" transform="translate(554.272 383)">…</text><text font-family="Aptos,Aptos_MSFontService,sans-serif" font-weight="400" font-size="24" transform="translate(616.503 467)">…</text><text font-family="Aptos,Aptos_MSFontService,sans-serif" font-weight="400" font-size="24" transform="translate(559.941 495)">…</text><path d="M489.5 565.5 489.5 595.404" stroke="#156082" stroke-width="3" stroke-miterlimit="8" fill="none" fill-rule="evenodd"/><path d="M0 0 44.7465 0.000104987" stroke="#156082" stroke-width="3" stroke-miterlimit="8" fill="none" fill-rule="evenodd" transform="matrix(-1 0 0 1 534.247 580.5)"/><text font-family="Aptos,Aptos_MSFontService,sans-serif" font-weight="400" font-size="24" transform="translate(542.643 582)">…</text><text font-family="Aptos,Aptos_MSFontService,sans-serif" font-weight="400" font-size="24" transform="translate(482.996 610)">…</text><path d="M156.5 338.5 156.5 368.404" stroke="#156082" stroke-width="3" stroke-miterlimit="8" fill="none" fill-rule="evenodd"/><path d="M0 0 44.7465 0.000104987" stroke="#156082" stroke-width="3" stroke-miterlimit="8" fill="none" fill-rule="evenodd" transform="matrix(-1 0 0 1 201.247 353.5)"/><text font-family="Aptos,Aptos_MSFontService,sans-serif" font-weight="400" font-size="24" transform="translate(208.975 355)">…</text><text font-family="Aptos,Aptos_MSFontService,sans-serif" font-weight="400" font-size="24" transform="translate(149.327 382)">…</text><path d="M156.5 452.5 156.5 482.404" stroke="#156082" stroke-width="3" stroke-miterlimit="8" fill="none" fill-rule="evenodd"/><path d="M0 0 44.7465 0.000104987" stroke="#156082" stroke-width="3" stroke-miterlimit="8" fill="none" fill-rule="evenodd" transform="matrix(-1 0 0 1 201.247 467.5)"/><text font-family="Aptos,Aptos_MSFontService,sans-serif" font-weight="400" font-size="24" transform="translate(208.975 469)">…</text><text font-family="Aptos,Aptos_MSFontService,sans-serif" font-weight="400" font-size="24" transform="translate(149.327 496)">…</text><path d="M89.5001 568.5 89.5002 598.404" stroke="#156082" stroke-width="3" stroke-miterlimit="8" fill="none" fill-rule="evenodd"/><path d="M0 0 44.7465 0.000104987" stroke="#156082" stroke-width="3" stroke-miterlimit="8" fill="none" fill-rule="evenodd" transform="matrix(-1 0 0 1 134.247 583.5)"/><text font-family="Aptos,Aptos_MSFontService,sans-serif" font-weight="400" font-size="24" transform="translate(142.556 585)">…</text><text font-family="Aptos,Aptos_MSFontService,sans-serif" font-weight="400" font-size="24" transform="translate(82.9092 612)">…</text><path d="M15.0645 2.65728 196.005 73.2527 193.825 78.8423 12.8837 8.24691ZM13.4976 14.9269 0 0 20.0401-1.84194ZM195.391 66.5726 208.889 81.4995 188.849 83.3415Z" fill="#FF0000" transform="matrix(1 0 0 -1 264 313.5)"/><path d="M14.8255 3.7683 235.564 109.393 232.974 114.805 12.2357 9.18059ZM12.3522 15.8879 0 0 20.1216-0.349008ZM235.447 102.685 247.799 118.573 227.678 118.922Z" fill="#FF0000" transform="matrix(1 0 0 -1 289 543.573)"/><g filter="url(#fx2)" transform="translate(887 94)"><g><rect x="9.82843" y="9.82843" width="354" height="515" stroke="#002060" stroke-width="6" stroke-miterlimit="8" fill="none"/></g></g><rect x="894" y="101" width="354" height="515" stroke="#002060" stroke-width="6" stroke-miterlimit="8" fill="none"/><text font-family="Aptos,Aptos_MSFontService,sans-serif" font-weight="400" font-size="42.6667" transform="translate(933.547 164)">New Relations</text><rect x="923.5" y="239.5" width="126" height="49" stroke="#00B050" stroke-linejoin="round" stroke-miterlimit="10" fill="none"/><text fill="#00B050" font-family="Consolas,Consolas_MSFontService,sans-serif" font-weight="400" font-size="32" transform="translate(932.189 274)">Person</text><rect x="1004.5" y="396.5" width="216" height="48" stroke="#00B050" stroke-linejoin="round" stroke-miterlimit="10" fill="none"/><text fill="#00B050" font-family="Consolas,Consolas_MSFontService,sans-serif" font-weight="400" font-size="32" transform="translate(1014.01 431)">Corporation</text><rect x="961.5" y="317.5" width="126" height="48" stroke="#00B050" stroke-linejoin="round" stroke-miterlimit="10" fill="none"/><text fill="#00B050" font-family="Consolas,Consolas_MSFontService,sans-serif" font-weight="400" font-size="32" transform="translate(970.255 352)">Client</text><path d="M934.5 289.5 934.5 343.511" stroke="#156082" stroke-width="3" stroke-miterlimit="8" fill="none" fill-rule="evenodd"/><path d="M0 0 26.163 0.000104987" stroke="#156082" stroke-width="3" stroke-miterlimit="8" fill="none" fill-rule="evenodd" transform="matrix(-1 0 0 1 960.663 343.5)"/><path d="M978.5 365.5 978.5 419.511" stroke="#156082" stroke-width="3" stroke-miterlimit="8" fill="none" fill-rule="evenodd"/><path d="M0 0 26.163 0.000104987" stroke="#156082" stroke-width="3" stroke-miterlimit="8" fill="none" fill-rule="evenodd" transform="matrix(-1 0 0 1 1004.66 419.5)"/><path d="M804 343.5 836.5 343.5 836.5 318 869 369 836.5 420 836.5 394.5 804 394.5Z" stroke="#042433" stroke-width="2" stroke-miterlimit="8" fill="#156082" fill-rule="evenodd"/><text fill="#FF0000" font-family="Aptos,Aptos_MSFontService,sans-serif" font-weight="400" font-size="42.6667" transform="translate(294.994 64)">Alignment</text><path d="M198 236.963C312.832 206.727 427.663 176.491 548.497 180.331 669.33 184.17 796.165 222.085 923 260" stroke="#00B050" stroke-width="6" stroke-miterlimit="8" stroke-dasharray="6 6" fill="none" fill-rule="evenodd"/><path d="M734 451.277C777.058 484.063 820.115 516.849 865.115 513.803 910.115 510.757 957.058 471.878 1004 433" stroke="#00B050" stroke-width="6" stroke-miterlimit="8" stroke-dasharray="6 6" fill="none" fill-rule="evenodd"/><path d="M596 234 964 333" stroke="#00B050" stroke-width="6" stroke-miterlimit="8" stroke-dasharray="6 6" fill="none" fill-rule="evenodd"/><text fill="#002060" font-family="Aptos,Aptos_MSFontService,sans-serif" font-weight="400" font-size="24" transform="matrix(-1.83697e-16 -1 1 -1.83697e-16 81.3575 402)">subclasses</text><text fill="#002060" font-family="Aptos,Aptos_MSFontService,sans-serif" font-weight="400" font-size="24" transform="matrix(-1.83697e-16 -1 1 -1.83697e-16 479.465 403)">subclasses</text><path d="M277.543 311.971 461.599 244.549 474.936 280.958 290.88 348.38Z" fill="#FFFFFF" fill-rule="evenodd"/><text fill="#FF0000" font-family="Aptos,Aptos_MSFontService,sans-serif" font-weight="400" font-size="24" transform="matrix(0.938985 -0.343959 0.343959 0.938985 295.775 334)">set</text><text fill="#FF0000" font-family="Aptos,Aptos_MSFontService,sans-serif" font-weight="400" font-size="24" transform="matrix(0.938985 -0.343959 0.343959 0.938985 330.518 321)">as</text><text fill="#FF0000" font-family="Aptos,Aptos_MSFontService,sans-serif" font-weight="400" font-size="24" transform="matrix(0.938985 -0.343959 0.343959 0.938985 358.061 311)">equivalent</text><path d="M326.338 534.068 502.374 447.85 519.429 482.673 343.393 568.891Z" fill="#FFFFFF" fill-rule="evenodd"/><text fill="#FF0000" font-family="Aptos,Aptos_MSFontService,sans-serif" font-weight="400" font-size="24" transform="matrix(0.89807 -0.439853 0.439853 0.89807 346.748 554)">set</text><text fill="#FF0000" font-family="Aptos,Aptos_MSFontService,sans-serif" font-weight="400" font-size="24" transform="matrix(0.89807 -0.439853 0.439853 0.89807 379.976 538)">as</text><text fill="#FF0000" font-family="Aptos,Aptos_MSFontService,sans-serif" font-weight="400" font-size="24" transform="matrix(0.89807 -0.439853 0.439853 0.89807 406.32 525)">equivalent</text></g></svg>